<svg version="1.1" id="Layer_1" xmlns="http://www.w3.org/2000/svg" xmlns:xlink="http://www.w3.org/1999/xlink" x="0px" y="0px"
	 width="100%" viewBox="0 0 1024 1024" enable-background="new 0 0 1024 1024" xml:space="preserve">
<path fill="#0A0A0A" opacity="1.000000" stroke="none" 
	d="
M551.000000,1025.000000 
	C367.333344,1025.000000 184.166672,1025.000000 1.000000,1025.000000 
	C1.000000,683.666687 1.000000,342.333344 1.000000,1.000000 
	C342.333344,1.000000 683.666687,1.000000 1025.000000,1.000000 
	C1025.000000,342.333344 1025.000000,683.666687 1025.000000,1025.000000 
	C867.166687,1025.000000 709.333313,1025.000000 551.000000,1025.000000 
M559.912354,475.090851 
	C559.912354,475.090851 559.873718,475.189331 559.820923,474.422089 
	C558.156189,474.432373 556.491516,474.442688 553.936401,474.344727 
	C549.623047,474.509918 545.309753,474.675110 540.855103,474.166321 
	C538.903381,474.110870 536.951721,474.055450 534.525085,473.461700 
	C530.491577,473.307800 526.453125,472.949188 522.425781,473.048157 
	C516.433228,473.195343 510.451813,473.818115 504.459412,473.945923 
	C500.375671,474.033020 497.375977,472.182861 495.470428,468.275696 
	C494.631134,466.554718 492.609711,465.416260 491.147003,463.990753 
	C490.415497,463.277893 489.260315,462.600647 489.106903,461.759521 
	C488.217804,456.884583 485.421478,456.447937 481.007751,458.094177 
	C480.667999,457.740631 480.328278,457.387085 479.991852,456.229645 
	C479.636292,451.137390 475.610077,452.736298 472.916412,452.108490 
	C472.916412,452.108490 472.768768,452.286926 472.834930,451.545532 
	C471.988983,448.670654 470.348175,448.245117 467.340698,450.015381 
	C466.559631,449.644379 465.778595,449.273376 464.787598,448.145691 
	C463.912964,448.071136 463.038300,447.996582 461.547089,447.951752 
	C458.363678,447.252411 455.180267,446.553040 451.981079,445.145416 
	C449.812103,441.547211 447.862305,444.253571 444.950165,445.192444 
	C430.750305,445.134125 416.550476,445.059021 402.350586,445.060059 
	C401.516266,445.060120 400.681976,445.674683 399.166412,446.142822 
	C397.740662,447.810699 396.638123,450.101013 394.833038,451.038239 
	C387.202179,455.000244 382.122314,466.103790 383.232025,474.680420 
	C384.408325,483.771576 384.820862,493.013245 384.816833,502.188812 
	C384.813751,509.264160 382.789581,516.392334 383.223328,523.400513 
	C383.755341,531.996277 381.232727,541.265320 387.373108,549.088318 
	C388.061157,549.964905 387.226685,551.921387 387.420441,553.332825 
	C387.622742,554.806824 387.874298,557.230774 388.691559,557.507996 
	C393.891876,559.271667 399.209778,561.562805 404.572571,561.801575 
	C418.031250,562.400879 431.534973,562.053162 445.018982,561.919006 
	C446.350891,561.905823 447.671356,560.745789 449.697784,559.906128 
	C450.423370,559.843750 451.148956,559.781433 452.339233,560.354248 
	C453.892426,560.570007 455.445587,560.785767 457.184845,561.782471 
	C462.107880,562.350769 467.060913,563.538269 471.945007,563.302002 
	C476.272369,563.092651 480.516907,561.274414 484.814850,560.236206 
	C485.410828,560.092285 486.197998,560.166626 486.737274,560.446716 
	C495.152161,564.817139 504.294983,565.902588 513.558044,566.748474 
	C523.050049,567.615234 532.482239,569.207275 541.983276,569.876038 
	C547.092590,570.235718 552.317017,569.520935 557.431885,568.850586 
	C558.742310,568.678833 559.758484,566.732544 561.047241,565.789062 
	C562.266541,564.896423 563.615479,564.133789 565.001465,563.529602 
	C566.303345,562.962097 567.723938,562.661743 569.100342,562.272095 
	C570.074463,561.996460 571.101440,561.454407 572.036743,561.572083 
	C576.357910,562.115601 578.245667,560.247742 578.284790,555.345398 
	C578.478271,554.434692 578.671692,553.523926 578.917969,552.217957 
	C579.061157,551.951843 579.283264,551.831787 580.387329,551.931641 
	C580.924316,551.955200 581.461365,551.978821 582.107300,552.687439 
	C583.532837,554.009033 584.932678,555.359802 586.388245,556.647461 
	C593.715149,563.129333 601.283508,568.443970 612.062866,567.119141 
	C624.275024,565.618347 636.601074,564.251892 648.874878,564.275024 
	C660.378357,564.296692 671.866516,566.371277 683.385315,567.215271 
	C688.274048,567.573425 693.223633,567.059631 698.146179,567.022888 
	C699.623962,567.011902 701.279236,566.890869 702.553223,567.474792 
	C709.063416,570.458557 715.800903,570.085693 722.619751,569.277588 
	C734.825439,567.831055 747.050171,566.534729 759.237122,564.946594 
	C764.529541,564.256836 769.747986,562.999512 775.936646,562.000305 
	C782.227600,561.776245 788.518005,561.397461 794.809692,561.376282 
	C799.969849,561.358948 805.165161,561.480164 810.281067,562.082397 
	C813.982300,562.518188 817.617188,564.750427 821.214722,564.598145 
	C831.335815,564.169678 841.416443,562.850281 851.525818,562.042786 
	C854.641785,561.793884 856.992371,561.366028 857.225830,557.425598 
	C857.305054,556.088013 858.952576,554.830933 859.914917,553.560913 
	C861.541260,551.414673 863.617432,549.490112 864.751282,547.113098 
	C867.764465,540.796448 867.541748,533.162231 872.949219,527.703308 
	C874.045654,526.596375 873.484436,523.929016 873.879089,522.020752 
	C874.224792,520.348938 874.364563,518.280151 875.419983,517.172363 
	C879.436523,512.956726 881.827881,508.442261 882.237610,502.344086 
	C882.580750,497.235931 884.861816,492.267548 886.188110,487.211914 
	C886.877563,484.583923 887.513489,481.918762 887.819580,479.230103 
	C887.893066,478.584686 886.557129,477.778870 885.419922,477.001740 
	C885.419922,477.001740 884.996582,476.844177 884.822266,476.143219 
	C882.674194,474.660553 880.593384,473.732605 878.264404,477.001892 
	C876.546631,476.950439 874.828857,476.898987 873.002380,475.970428 
	C871.077820,472.565826 868.207825,474.022003 865.649048,474.692566 
	C860.606262,476.014160 855.696289,478.257172 850.589600,478.809998 
	C844.913086,479.424530 839.403503,479.672058 835.402466,483.636230 
	C831.385376,481.625397 827.767456,479.814362 823.992737,477.583954 
	C823.992737,477.583954 823.949829,477.138306 823.959106,476.351929 
	C821.759888,472.981934 820.017517,473.106476 816.124573,477.002380 
	C813.748657,476.951324 811.372681,476.900238 808.983276,476.097748 
	C806.341431,474.197174 803.699585,472.296600 800.537781,470.021973 
	C799.139648,462.985504 797.566223,454.860626 795.842957,446.767578 
	C795.697754,446.085754 794.548279,445.617737 793.026428,445.018707 
	C791.349854,444.962677 789.673218,444.906677 787.866455,444.185364 
	C785.613464,441.774384 783.487305,440.481842 781.178162,445.003876 
	C779.784302,444.951996 778.390503,444.900085 776.862549,444.202332 
	C776.031006,444.050171 775.030579,443.524231 774.397217,443.810486 
	C771.625061,445.063263 769.051147,447.508087 766.238037,447.778137 
	C757.125671,448.652893 753.530457,454.285431 751.941467,462.294159 
	C750.333008,470.400696 747.166260,472.959106 739.000366,472.999695 
	C735.109253,473.019043 731.215210,472.946930 727.329163,473.093170 
	C726.490234,473.124725 725.679871,473.917236 723.969116,474.200500 
	C720.362915,474.255737 716.756714,474.310974 712.764343,473.752655 
	C711.510498,474.130493 710.256592,474.508362 708.373840,475.092529 
	C707.934570,475.103577 707.495361,475.114594 706.723145,474.623535 
	C701.680481,475.504791 696.573486,476.124725 691.614014,477.344208 
	C687.058105,478.464447 682.749329,479.310211 678.353455,476.802856 
	C677.542786,476.340454 676.099365,476.987305 674.125854,477.021790 
	C672.749451,476.964294 671.373047,476.906769 669.847778,476.151093 
	C667.361877,474.381958 664.726013,471.143372 662.340027,477.001984 
	C661.892273,476.951233 661.444458,476.900513 660.891235,476.145294 
	C658.829468,473.390778 656.987610,472.157135 655.469971,477.064117 
	C655.264038,477.377045 655.058105,477.690002 654.427002,477.999298 
	C654.427002,477.999298 654.001282,477.998291 653.607788,477.494568 
	C652.405212,477.663452 651.202576,477.832336 649.204773,478.002319 
	C647.632874,478.414124 646.031067,478.736725 644.493958,479.252319 
	C635.174011,482.378235 626.142517,486.882385 615.936646,485.062622 
	C615.936646,485.062622 615.882019,485.176392 615.782532,484.708405 
	C615.662231,484.395172 615.452026,484.163391 614.975220,483.388489 
	C614.891663,482.963837 614.808105,482.539215 615.291260,481.735718 
	C614.482483,480.173370 613.673706,478.611023 611.985291,477.017120 
	C609.322449,476.961090 606.659607,476.905060 603.976624,476.117371 
	C601.256226,472.434753 597.691162,472.399139 591.196045,475.982117 
	C583.243958,475.017548 575.297424,473.998260 567.330078,473.182465 
	C566.621155,473.109863 565.776794,474.360046 564.033569,475.354828 
	C563.744019,475.537140 563.454407,475.719421 562.739685,475.993683 
	C562.155334,475.942657 561.570923,475.891632 560.695068,475.461487 
	C560.439148,475.249908 560.145264,475.138855 559.912354,475.090851 
M275.881165,407.490204 
	C274.593109,406.975037 273.305084,406.459869 271.321869,405.857697 
	C263.547272,401.214020 255.772644,396.570343 247.906006,391.319366 
	C247.223953,391.330566 246.541901,391.341766 245.221603,391.264984 
	C244.813370,391.132599 244.405136,391.000214 243.800461,390.123993 
	C235.554367,384.657074 229.219955,392.675781 221.825928,393.412720 
	C219.531189,393.641418 217.450104,396.134033 215.296921,397.627258 
	C213.240494,399.053375 211.407104,401.161926 209.137833,401.840240 
	C205.205017,403.015778 202.610733,404.921143 201.804504,409.668701 
	C201.231064,409.845978 200.657639,410.023254 199.624619,409.595154 
	C196.528717,410.192566 192.257751,409.723511 190.562073,411.591766 
	C185.888992,416.740631 176.469223,416.528778 175.111923,425.134430 
	C175.111923,425.134430 175.263885,425.230804 174.358383,425.095490 
	C172.553665,425.780579 167.845566,422.765961 169.772400,428.812012 
	C169.772400,428.812012 169.392334,428.875916 168.584869,428.414948 
	C166.228302,428.692291 163.404846,428.236664 161.602753,429.384521 
	C156.201904,432.824707 151.207809,436.901855 146.026062,440.690918 
	C145.666611,440.953766 145.068573,440.885193 144.583893,440.982697 
	C134.542572,443.002899 125.525131,451.569183 123.869469,461.387848 
	C123.392761,464.214783 124.738785,467.307098 124.950195,470.298859 
	C126.345840,490.049103 128.270630,509.791107 128.723724,529.565613 
	C128.927505,538.459473 126.951996,547.659851 124.432365,556.272644 
	C122.644142,562.385193 123.139359,567.022217 126.483452,572.144104 
	C131.172562,579.326111 137.152710,584.816833 145.164688,587.823120 
	C151.598099,590.237061 158.199387,592.201965 164.714615,594.400330 
	C168.559814,595.697815 172.695740,596.521362 176.144119,598.519165 
	C181.715332,601.746765 186.688934,605.989929 192.170822,609.391785 
	C198.182404,613.122375 204.598160,616.203369 210.592392,619.959106 
	C212.484634,621.144653 213.655991,623.541809 215.031036,625.474304 
	C216.355972,627.336365 217.214401,629.626160 218.810867,631.180481 
	C222.876068,635.138123 232.042892,634.502808 238.261627,630.189270 
	C239.297531,629.470764 240.612259,628.289551 241.577332,628.474548 
	C247.617310,629.631958 251.336838,625.286560 255.693222,622.689636 
	C260.421448,619.870972 264.544434,615.961304 269.413971,613.471130 
	C279.842712,608.138062 290.864136,603.909363 299.326996,595.314758 
	C300.405518,594.219543 302.308624,593.975098 303.747467,593.186523 
	C305.856110,592.030701 307.875275,590.712952 309.960388,589.512573 
	C312.597656,587.994263 315.228973,586.458862 317.932220,585.065247 
	C319.064423,584.481567 320.635010,584.559875 321.562683,583.797546 
	C329.009247,577.677979 336.358368,571.439453 343.702850,565.196777 
	C344.176453,564.794189 344.546387,564.087891 344.656372,563.468262 
	C345.480865,558.823547 346.857880,554.169983 346.895050,549.509949 
	C347.109192,522.679138 347.027008,495.845703 346.922546,469.013611 
	C346.917328,467.674561 345.768738,466.339966 344.976074,464.296143 
	C344.874817,463.575287 344.773560,462.854431 345.318939,461.683899 
	C344.281555,456.679382 347.821320,449.989441 340.028168,447.438812 
	C339.348419,447.216370 338.765198,446.327698 338.386841,445.615814 
	C335.912872,440.960632 331.539429,439.758789 326.936218,439.069733 
	C326.936218,439.069733 326.880768,439.175140 326.939575,438.399506 
	C326.017975,437.237091 325.316010,435.728210 324.132935,434.978180 
	C320.806580,432.869415 315.985535,431.890717 314.138947,428.962341 
	C311.351257,424.541656 308.275024,425.353363 304.235992,425.810822 
	C304.235992,425.810822 304.006775,425.480316 304.504272,424.746918 
	C305.443268,420.812500 304.135559,418.393311 299.934906,417.804993 
	C296.234375,417.286682 292.547119,416.673523 288.952850,416.052124 
	C288.952850,416.052124 288.901917,416.150543 288.891144,415.403351 
	C288.203339,413.801544 287.893524,411.219055 286.757141,410.781097 
	C283.292358,409.445709 279.509064,408.936768 275.949249,408.056580 
	C275.949249,408.056580 275.898865,408.155670 275.881165,407.490204 
z"/>
<path fill="#FDFDFD" opacity="1.000000" stroke="none" 
	d="
M344.672302,462.133575 
	C344.773560,462.854431 344.874817,463.575287 344.991821,465.113220 
	C345.003326,492.738495 344.850616,519.547913 345.065582,546.354309 
	C345.155518,557.566162 340.293671,566.122803 331.257446,571.698669 
	C303.999878,588.518250 276.458496,604.881165 248.915924,621.233765 
	C239.967239,626.546753 230.707901,626.444885 221.655792,621.072754 
	C198.133148,607.112671 174.621735,593.133667 151.089508,579.189819 
	C139.134567,572.105957 133.068481,561.974182 133.226608,547.762817 
	C133.521133,521.291321 133.366547,494.813202 133.202225,468.339050 
	C133.129578,456.634094 138.119568,448.019348 147.946503,441.990021 
	C155.088593,437.608032 162.243271,433.246552 169.392334,428.875916 
	C169.392334,428.875916 169.772400,428.812012 170.166458,428.526489 
	C172.128311,427.237579 173.696091,426.234192 175.263885,425.230804 
	C175.263885,425.230804 175.111923,425.134430 175.510956,425.135345 
	C183.968079,420.157684 192.026138,415.179108 200.084198,410.200500 
	C200.657639,410.023254 201.231064,409.845978 202.265533,409.302490 
	C208.946640,405.231781 215.359970,401.811523 221.336182,397.748322 
	C228.257568,393.042480 235.492432,390.040009 243.996902,390.867798 
	C244.405136,391.000214 244.813370,391.132599 245.730301,391.537354 
	C246.825333,391.848724 247.411682,391.887695 247.998016,391.926636 
	C255.772644,396.570343 263.547272,401.214020 271.901672,406.130829 
	C273.620636,406.987854 274.759735,407.571777 275.898865,408.155670 
	C275.898865,408.155670 275.949249,408.056580 276.049072,408.393616 
	C280.399872,411.203949 284.650909,413.677246 288.901917,416.150543 
	C288.901917,416.150543 288.952850,416.052124 289.051514,416.390198 
	C294.102356,419.645599 299.054565,422.562958 304.006775,425.480316 
	C304.006775,425.480316 304.235992,425.810822 304.645447,426.085999 
	C312.330170,430.632538 319.605469,434.903839 326.880768,439.175140 
	C326.880768,439.175140 326.936218,439.069733 327.034821,439.403931 
	C336.192474,444.687195 342.016693,452.169647 344.672302,462.133575 
M327.011932,487.500031 
	C327.012360,481.500427 326.702637,475.480377 327.097015,469.506775 
	C327.525391,463.018005 324.495209,458.566925 319.442261,455.481323 
	C294.693756,440.368683 269.831085,425.442963 245.021072,410.430908 
	C241.416428,408.249817 237.744125,408.270905 234.262192,410.363617 
	C208.414612,425.898590 182.600632,441.489716 156.812973,457.124023 
	C152.864777,459.517670 150.928314,463.067474 150.943649,467.875519 
	C151.031387,495.373016 151.001572,522.870911 150.973114,550.368713 
	C150.967682,555.614929 153.103394,559.869202 157.463013,562.484314 
	C181.761017,577.059387 206.173981,591.442627 230.526123,605.927673 
	C233.819290,607.886597 236.954559,607.906738 240.232117,605.932922 
	C267.057220,589.778015 293.909149,573.667664 320.722992,557.494202 
	C325.174194,554.809387 327.166290,550.930847 327.101898,545.494324 
	C326.876831,526.498535 327.013184,507.498444 327.011932,487.500031 
z"/>
<path fill="#FEFEFE" opacity="1.000000" stroke="none" 
	d="
M479.988556,457.033539 
	C480.328278,457.387085 480.667999,457.740631 481.436096,458.434631 
	C483.801544,460.809570 485.970062,462.671753 487.635101,464.908691 
	C494.452759,474.068085 497.485291,484.578217 498.374084,495.842407 
	C499.689301,512.510986 497.406464,528.251526 486.600159,542.046265 
	C485.838013,542.743652 485.356384,543.348694 484.578339,544.061157 
	C483.172485,545.404053 482.063019,546.639465 480.627319,547.987061 
	C478.491486,549.383667 476.681824,550.668152 474.644470,551.998291 
	C474.080719,552.163513 473.911255,552.401733 473.574921,552.827026 
	C472.138184,553.545349 471.034882,554.195007 469.606995,554.898621 
	C468.521454,555.319702 467.760498,555.686768 466.607391,556.028564 
	C461.435028,557.241821 456.654785,558.480469 451.874542,559.719116 
	C451.148956,559.781433 450.423370,559.843750 448.883331,559.944031 
	C432.164795,559.981934 416.260712,559.981934 400.004608,559.981934 
	C400.004608,557.769348 400.006866,555.980103 400.004303,554.190857 
	C399.952423,518.128357 399.899994,482.065857 399.847687,446.003357 
	C400.681976,445.674683 401.516266,445.060120 402.350586,445.060059 
	C416.550476,445.059021 430.750305,445.134125 445.679199,445.560303 
	C448.271118,445.903290 450.134003,445.878479 451.996857,445.853668 
	C455.180267,446.553040 458.363678,447.252411 462.106506,448.124939 
	C463.443115,448.499573 464.220337,448.700989 464.997528,448.902405 
	C465.778595,449.273376 466.559631,449.644379 467.908478,450.237427 
	C469.907104,451.068634 471.337921,451.677795 472.768768,452.286926 
	C472.768768,452.286926 472.916412,452.108490 473.012146,452.460754 
	C475.401459,454.219849 477.695007,455.626709 479.988556,457.033539 
M465.540833,472.923828 
	C452.730927,461.117828 436.908325,462.945892 421.279999,462.966644 
	C421.279999,489.717102 421.279999,516.255005 421.279999,543.007385 
	C428.045349,543.007385 434.541656,543.330139 440.992737,542.927734 
	C449.530273,542.395081 457.475586,539.736206 464.221313,534.260620 
	C472.821320,527.279785 476.882843,518.210938 477.091675,507.089050 
	C477.328186,494.493958 476.033905,482.584747 465.540833,472.923828 
z"/>
<path fill="#FDFDFD" opacity="1.000000" stroke="none" 
	d="
M579.584351,551.857849 
	C579.283264,551.831787 579.061157,551.951843 578.580078,552.507568 
	C577.477905,553.492432 576.713562,554.187805 575.625854,555.020142 
	C564.718262,563.649536 552.122498,564.632996 539.772339,562.506226 
	C524.627380,559.898315 514.042297,550.559998 509.499268,535.423889 
	C505.725677,522.851501 505.958252,510.287720 510.938873,498.057312 
	C514.980164,488.133636 521.698059,480.674194 532.280762,476.913940 
	C532.746521,476.638275 532.939514,476.340576 533.447998,476.031891 
	C534.175842,475.965485 534.588318,475.910065 535.389404,475.919189 
	C537.517456,475.602570 539.256897,475.221436 540.996399,474.840271 
	C545.309753,474.675110 549.623047,474.509918 554.665955,474.640015 
	C556.888245,475.019958 558.380981,475.104645 559.873718,475.189331 
	C559.873718,475.189331 559.912354,475.090851 559.960571,475.363098 
	C560.334717,475.703796 560.660645,475.772186 560.986572,475.840576 
	C561.570923,475.891632 562.155334,475.942657 563.228516,476.161560 
	C566.105530,477.278748 568.493652,478.228058 570.909058,479.125031 
	C570.936401,479.072693 570.830811,479.125580 570.968079,479.424683 
	C572.043396,480.192261 572.981506,480.660706 573.943726,481.083160 
	C573.967834,481.037201 573.875427,481.084595 574.001831,481.389221 
	C575.043030,482.245789 575.957886,482.797699 576.995178,483.625549 
	C578.291504,484.978607 579.465271,486.055695 580.725220,487.451202 
	C581.512085,488.555786 582.212830,489.341919 582.937988,490.081268 
	C582.962463,490.034515 582.869080,490.083710 582.919128,490.444794 
	C588.942200,500.702698 590.601379,511.495209 589.786987,523.631226 
	C568.792114,523.631226 547.953186,523.631226 525.481445,523.631226 
	C527.618408,528.927673 529.255737,532.985901 531.029785,537.356323 
	C535.444580,540.385803 539.722778,543.103027 544.369629,545.905640 
	C545.491943,545.971619 546.245544,545.952271 547.399719,546.106567 
	C549.199707,546.220154 550.599121,546.160156 552.414124,546.125610 
	C559.631714,545.690674 564.953552,542.661133 568.992004,537.151184 
	C569.726501,536.149048 571.197388,535.149292 572.369751,535.098206 
	C577.485046,534.875061 582.615662,535.002258 589.031799,535.002258 
	C586.985962,539.450195 585.283081,543.152588 583.385864,546.944458 
	C583.015137,547.273438 582.931030,547.541687 582.629395,547.974487 
	C581.407837,549.359314 580.496094,550.608582 579.584351,551.857849 
M527.275146,508.052429 
	C527.853210,508.703125 528.426880,509.917236 529.010010,509.921844 
	C542.614014,510.028656 556.218994,510.004517 569.850403,510.004517 
	C568.953125,498.527374 562.059021,492.176697 549.889221,491.258057 
	C538.826233,490.422913 530.188782,496.664337 527.275146,508.052429 
z"/>
<path fill="#FDFDFD" opacity="1.000000" stroke="none" 
	d="
M713.150513,474.366211 
	C716.756714,474.310974 720.362915,474.255737 724.693909,474.565155 
	C730.996643,476.528046 737.006104,477.281006 742.078125,479.870270 
	C764.438904,491.285431 767.357788,526.685303 755.492798,544.712402 
	C751.586243,550.647949 745.154297,554.921387 739.487854,559.977234 
	C729.920715,562.663086 720.665710,565.195496 711.055176,562.850769 
	C705.980591,561.612732 701.092712,559.609741 696.018921,557.633911 
	C694.380676,556.096436 692.843994,554.877258 691.160522,553.802063 
	C691.013672,553.946106 691.325012,553.677429 691.154785,553.389771 
	C688.386597,549.974976 685.788696,546.847778 683.142212,543.340454 
	C682.370605,541.640137 681.647583,540.319824 680.936157,538.610840 
	C677.083557,528.235168 676.464172,517.938354 678.554077,507.542694 
	C681.811768,491.338745 691.040405,480.202698 707.056091,475.125641 
	C707.495361,475.114594 707.934570,475.103577 709.051147,475.044617 
	C710.869080,474.786560 712.009827,474.576385 713.150513,474.366211 
M732.166199,495.109650 
	C717.588196,487.618652 701.848328,493.385132 699.264771,507.898163 
	C697.987915,515.070435 698.249695,522.760071 699.219177,530.028320 
	C700.489685,539.553406 709.076477,546.026245 719.282288,546.666138 
	C728.725586,547.258118 737.582520,541.662354 739.517517,532.042358 
	C740.982910,524.756775 740.507629,516.997925 740.236572,509.473480 
	C740.034485,503.864258 737.449036,499.012054 732.166199,495.109650 
z"/>
<path fill="#FDFDFD" opacity="1.000000" stroke="none" 
	d="
M669.996643,476.849274 
	C671.373047,476.906769 672.749451,476.964294 674.561401,477.471985 
	C674.854187,478.881500 674.886597,479.909180 674.543091,480.790222 
	C664.260498,507.159393 653.940735,533.514160 643.619629,559.889465 
	C636.673340,559.889465 629.869751,559.889465 623.045410,559.931641 
	C623.024719,559.973755 623.109192,559.932678 623.060059,559.559814 
	C622.347595,557.539490 621.686646,555.890991 621.020508,554.244629 
	C617.045776,544.420044 613.069763,534.596008 609.114502,524.467651 
	C609.050781,523.772827 608.966736,523.382080 608.912720,522.722168 
	C608.654358,522.256958 608.365967,522.061035 608.062500,521.894958 
	C608.047363,521.924866 608.108276,521.896790 608.075806,521.509888 
	C605.859192,515.358337 603.674988,509.593628 601.477539,503.453003 
	C600.928894,501.714844 600.393494,500.352570 599.899109,498.722961 
	C599.649841,498.262787 599.359497,498.069977 599.054626,497.907074 
	C599.040039,497.936981 599.100769,497.909637 599.063782,497.525696 
	C597.113464,492.384857 595.200195,487.628021 593.259277,482.507629 
	C592.864868,480.543976 592.498169,478.943848 592.572266,477.232849 
	C596.674316,477.031006 600.335510,476.940002 603.996765,476.848999 
	C606.659607,476.905060 609.322449,476.961090 612.486206,477.382202 
	C613.566284,479.203033 614.145447,480.658783 614.724548,482.114563 
	C614.808105,482.539215 614.891663,482.963837 615.014526,483.967590 
	C615.329895,484.756592 615.605957,484.966492 615.882019,485.176392 
	C615.882019,485.176392 615.936646,485.062622 615.935181,485.481293 
	C621.622070,502.588531 627.310486,519.277100 632.998901,535.965637 
	C633.461853,535.961121 633.924805,535.956543 634.387756,535.952026 
	C636.887939,528.221680 639.388184,520.491272 641.904358,512.777100 
	C641.920288,512.793335 641.882751,512.818848 642.065735,512.550659 
	C642.499756,511.521698 642.750793,510.760834 643.152832,509.722839 
	C643.531433,508.887207 643.758972,508.328766 644.258789,507.529541 
	C645.674194,503.525848 646.817261,499.762970 648.110474,495.712891 
	C648.635254,494.666748 649.009888,493.907806 649.645020,492.905365 
	C650.230957,491.108276 650.556335,489.554718 651.035767,487.679199 
	C651.553772,486.276093 651.917725,485.194885 652.565796,483.935181 
	C653.186951,482.504852 653.523926,481.252991 653.941284,479.794983 
	C654.021606,479.588898 654.056335,479.147858 654.316223,479.053711 
	C654.668152,478.640717 654.760193,478.321838 654.852295,478.002960 
	C655.058105,477.690002 655.264038,477.377045 656.148743,477.028870 
	C658.217224,476.945648 659.606995,476.897705 660.996704,476.849792 
	C661.444458,476.900513 661.892273,476.951233 663.104248,476.998077 
	C665.911133,476.945862 667.953918,476.897583 669.996643,476.849274 
z"/>
<path fill="#FDFDFD" opacity="1.000000" stroke="none" 
	d="
M823.949829,477.138306 
	C823.949829,477.138306 823.992737,477.583954 824.001526,478.175995 
	C830.727112,498.092163 837.443970,517.416321 844.427795,537.508545 
	C851.850037,516.760376 858.917908,497.002686 866.014160,477.165833 
	C868.508118,477.053986 870.809570,476.950775 873.111084,476.847565 
	C874.828857,476.898987 876.546631,476.950439 879.057495,476.997650 
	C881.565979,476.943665 883.281250,476.893921 884.996582,476.844177 
	C884.996582,476.844177 885.419922,477.001740 885.703003,477.410461 
	C885.935486,478.314331 885.994080,478.852417 885.818604,479.298431 
	C875.280151,506.088654 864.722351,532.871338 854.150146,559.695923 
	C847.288940,559.695923 840.368225,559.695923 833.873840,559.695923 
	C823.431213,532.102661 813.140442,504.910797 802.682983,477.278412 
	C805.392456,477.094208 807.194580,476.971680 808.996765,476.849182 
	C811.372681,476.900238 813.748657,476.951324 816.993591,476.998077 
	C819.891663,477.041962 821.920776,477.090118 823.949829,477.138306 
z"/>
<path fill="#050505" opacity="1.000000" stroke="none" 
	d="
M808.989990,476.473450 
	C807.194580,476.971680 805.392456,477.094208 802.682983,477.278412 
	C813.140442,504.910797 823.431213,532.102661 833.873840,559.695923 
	C840.368225,559.695923 847.288940,559.695923 854.150146,559.695923 
	C864.722351,532.871338 875.280151,506.088654 885.818604,479.298431 
	C885.994080,478.852417 885.935486,478.314331 885.927734,477.433014 
	C886.557129,477.778870 887.893066,478.584686 887.819580,479.230103 
	C887.513489,481.918762 886.877563,484.583923 886.188110,487.211914 
	C884.861816,492.267548 882.580750,497.235931 882.237610,502.344086 
	C881.827881,508.442261 879.436523,512.956726 875.419983,517.172363 
	C874.364563,518.280151 874.224792,520.348938 873.879089,522.020752 
	C873.484436,523.929016 874.045654,526.596375 872.949219,527.703308 
	C867.541748,533.162231 867.764465,540.796448 864.751282,547.113098 
	C863.617432,549.490112 861.541260,551.414673 859.914917,553.560913 
	C858.952576,554.830933 857.305054,556.088013 857.225830,557.425598 
	C856.992371,561.366028 854.641785,561.793884 851.525818,562.042786 
	C841.416443,562.850281 831.335815,564.169678 821.214722,564.598145 
	C817.617188,564.750427 813.982300,562.518188 810.281067,562.082397 
	C805.165161,561.480164 799.969849,561.358948 794.809692,561.376282 
	C788.518005,561.397461 782.227600,561.776245 775.463196,561.680847 
	C774.965393,560.936340 774.941040,560.511230 774.957520,560.044678 
	C774.998291,560.003174 775.079895,559.920166 775.542053,559.956421 
	C781.933960,559.992676 787.863708,559.992676 793.865356,559.992676 
	C793.865356,521.296875 793.865356,483.173645 793.865356,445.050415 
	C794.548279,445.617737 795.697754,446.085754 795.842957,446.767578 
	C797.566223,454.860626 799.139648,462.985504 800.537781,470.021973 
	C803.699585,472.296600 806.341431,474.197174 808.989990,476.473450 
z"/>
<path fill="#050505" opacity="1.000000" stroke="none" 
	d="
M168.988617,428.645447 
	C162.243271,433.246552 155.088593,437.608032 147.946503,441.990021 
	C138.119568,448.019348 133.129578,456.634094 133.202225,468.339050 
	C133.366547,494.813202 133.521133,521.291321 133.226608,547.762817 
	C133.068481,561.974182 139.134567,572.105957 151.089508,579.189819 
	C174.621735,593.133667 198.133148,607.112671 221.655792,621.072754 
	C230.707901,626.444885 239.967239,626.546753 248.915924,621.233765 
	C276.458496,604.881165 303.999878,588.518250 331.257446,571.698669 
	C340.293671,566.122803 345.155518,557.566162 345.065582,546.354309 
	C344.850616,519.547913 345.003326,492.738495 345.080048,465.466797 
	C345.768738,466.339966 346.917328,467.674561 346.922546,469.013611 
	C347.027008,495.845703 347.109192,522.679138 346.895050,549.509949 
	C346.857880,554.169983 345.480865,558.823547 344.656372,563.468262 
	C344.546387,564.087891 344.176453,564.794189 343.702850,565.196777 
	C336.358368,571.439453 329.009247,577.677979 321.562683,583.797546 
	C320.635010,584.559875 319.064423,584.481567 317.932220,585.065247 
	C315.228973,586.458862 312.597656,587.994263 309.960388,589.512573 
	C307.875275,590.712952 305.856110,592.030701 303.747467,593.186523 
	C302.308624,593.975098 300.405518,594.219543 299.326996,595.314758 
	C290.864136,603.909363 279.842712,608.138062 269.413971,613.471130 
	C264.544434,615.961304 260.421448,619.870972 255.693222,622.689636 
	C251.336838,625.286560 247.617310,629.631958 241.577332,628.474548 
	C240.612259,628.289551 239.297531,629.470764 238.261627,630.189270 
	C232.042892,634.502808 222.876068,635.138123 218.810867,631.180481 
	C217.214401,629.626160 216.355972,627.336365 215.031036,625.474304 
	C213.655991,623.541809 212.484634,621.144653 210.592392,619.959106 
	C204.598160,616.203369 198.182404,613.122375 192.170822,609.391785 
	C186.688934,605.989929 181.715332,601.746765 176.144119,598.519165 
	C172.695740,596.521362 168.559814,595.697815 164.714615,594.400330 
	C158.199387,592.201965 151.598099,590.237061 145.164688,587.823120 
	C137.152710,584.816833 131.172562,579.326111 126.483452,572.144104 
	C123.139359,567.022217 122.644142,562.385193 124.432365,556.272644 
	C126.951996,547.659851 128.927505,538.459473 128.723724,529.565613 
	C128.270630,509.791107 126.345840,490.049103 124.950195,470.298859 
	C124.738785,467.307098 123.392761,464.214783 123.869469,461.387848 
	C125.525131,451.569183 134.542572,443.002899 144.583893,440.982697 
	C145.068573,440.885193 145.666611,440.953766 146.026062,440.690918 
	C151.207809,436.901855 156.201904,432.824707 161.602753,429.384521 
	C163.404846,428.236664 166.228302,428.692291 168.988617,428.645447 
z"/>
<path fill="#060606" opacity="1.000000" stroke="none" 
	d="
M532.008057,476.891907 
	C521.698059,480.674194 514.980164,488.133636 510.938873,498.057312 
	C505.958252,510.287720 505.725677,522.851501 509.499268,535.423889 
	C514.042297,550.559998 524.627380,559.898315 539.772339,562.506226 
	C552.122498,564.632996 564.718262,563.649536 575.793823,555.281006 
	C576.856873,555.603210 577.428467,555.801575 578.000000,556.000000 
	C578.245667,560.247742 576.357910,562.115601 572.036743,561.572083 
	C571.101440,561.454407 570.074463,561.996460 569.100342,562.272095 
	C567.723938,562.661743 566.303345,562.962097 565.001465,563.529602 
	C563.615479,564.133789 562.266541,564.896423 561.047241,565.789062 
	C559.758484,566.732544 558.742310,568.678833 557.431885,568.850586 
	C552.317017,569.520935 547.092590,570.235718 541.983276,569.876038 
	C532.482239,569.207275 523.050049,567.615234 513.558044,566.748474 
	C504.294983,565.902588 495.152161,564.817139 486.737274,560.446716 
	C486.197998,560.166626 485.410828,560.092285 484.814850,560.236206 
	C480.516907,561.274414 476.272369,563.092651 471.945007,563.302002 
	C467.060913,563.538269 462.107880,562.350769 457.427155,561.244385 
	C460.779480,559.155457 463.889496,557.604675 466.999512,556.053833 
	C467.760498,555.686768 468.521454,555.319702 469.798767,555.164612 
	C471.512848,554.503845 472.710602,553.631104 473.908356,552.758423 
	C473.911255,552.401733 474.080719,552.163513 475.078491,552.011597 
	C478.692932,552.154358 481.691986,552.388245 480.953552,547.874939 
	C482.063019,546.639465 483.172485,545.404053 484.918335,544.069763 
	C485.996674,543.298584 486.438690,542.626221 486.880676,541.953857 
	C497.406464,528.251526 499.689301,512.510986 498.374084,495.842407 
	C497.485291,484.578217 494.452759,474.068085 487.635101,464.908691 
	C485.970062,462.671753 483.801544,460.809570 481.689697,458.473633 
	C485.421478,456.447937 488.217804,456.884583 489.106903,461.759521 
	C489.260315,462.600647 490.415497,463.277893 491.147003,463.990753 
	C492.609711,465.416260 494.631134,466.554718 495.470428,468.275696 
	C497.375977,472.182861 500.375671,474.033020 504.459412,473.945923 
	C510.451813,473.818115 516.433228,473.195343 522.425781,473.048157 
	C526.453125,472.949188 530.491577,473.307800 534.762573,474.039978 
	C535.000244,475.030396 535.000488,475.442535 535.000793,475.854675 
	C534.588318,475.910065 534.175842,475.965485 533.217041,476.109314 
	C532.370544,476.353333 532.149658,476.584747 532.008057,476.891907 
z"/>
<path fill="#060606" opacity="1.000000" stroke="none" 
	d="
M774.916687,560.086182 
	C774.941040,560.511230 774.965393,560.936340 774.994873,561.680664 
	C769.747986,562.999512 764.529541,564.256836 759.237122,564.946594 
	C747.050171,566.534729 734.825439,567.831055 722.619751,569.277588 
	C715.800903,570.085693 709.063416,570.458557 702.553223,567.474792 
	C701.279236,566.890869 699.623962,567.011902 698.146179,567.022888 
	C693.223633,567.059631 688.274048,567.573425 683.385315,567.215271 
	C671.866516,566.371277 660.378357,564.296692 648.874878,564.275024 
	C636.601074,564.251892 624.275024,565.618347 612.062866,567.119141 
	C601.283508,568.443970 593.715149,563.129333 586.388245,556.647461 
	C584.932678,555.359802 583.532837,554.009033 582.198608,552.012817 
	C582.506409,550.171814 582.722778,549.005371 582.939209,547.838928 
	C582.931030,547.541687 583.015137,547.273438 583.758850,546.946045 
	C585.342896,545.651917 586.219971,544.278931 587.411560,543.281738 
	C588.907898,542.029480 590.759033,540.094971 592.281738,540.244080 
	C594.467957,540.458252 598.163452,542.117004 598.300781,543.457703 
	C598.875305,549.063416 603.009094,550.036926 605.780640,551.280212 
	C609.716858,549.437439 612.832947,547.978638 616.629639,546.201172 
	C616.831665,549.039307 616.548889,550.527100 617.088013,551.603088 
	C618.629517,554.679871 618.545654,559.028503 623.109192,559.932678 
	C623.109192,559.932678 623.024719,559.973755 623.111816,560.335938 
	C630.287903,560.788452 637.391174,561.130676 644.452454,560.730530 
	C645.685913,560.660583 647.077026,557.594421 647.807983,555.686951 
	C649.154053,552.174500 649.862488,548.414856 651.250000,544.922485 
	C651.847290,543.418823 653.411072,542.257935 654.653198,541.063293 
	C655.871460,539.891602 657.916077,539.073975 658.313110,537.723328 
	C658.599426,536.749146 656.779846,535.156006 655.774902,533.652466 
	C656.401489,532.087341 656.852844,530.021790 658.015320,528.498962 
	C658.508240,527.853149 661.601746,528.162598 661.632690,528.349487 
	C662.053406,530.889343 662.389893,533.497070 662.253235,536.061707 
	C662.080933,539.295898 661.120850,542.515076 661.208557,545.721375 
	C661.239197,546.838989 663.281860,548.687622 664.566162,548.838928 
	C668.569824,549.310303 670.787598,547.016479 670.967590,543.026367 
	C671.112793,539.808899 670.997009,536.579590 670.997009,532.304504 
	C673.788208,533.600159 675.526367,534.135925 676.935791,535.135315 
	C678.428345,536.193542 679.608215,537.692871 680.924622,538.999512 
	C681.647583,540.319824 682.370605,541.640137 682.732666,543.461426 
	C679.024170,548.957153 679.980713,552.140198 685.543457,553.601074 
	C687.352539,554.076233 689.391296,553.676819 691.325012,553.677368 
	C691.325012,553.677429 691.013672,553.946106 691.082031,554.192017 
	C691.297974,557.743713 692.107117,560.113831 696.120544,557.952148 
	C701.092712,559.609741 705.980591,561.612732 711.055176,562.850769 
	C720.665710,565.195496 729.920715,562.663086 739.906616,559.989624 
	C745.168945,558.888733 749.889832,558.666199 752.759155,553.984741 
	C754.835999,550.596313 761.195068,549.141113 762.465698,551.385681 
	C765.271545,556.341858 770.660645,557.353149 774.916687,560.086182 
M672.574341,551.634399 
	C673.178101,550.807129 673.781860,549.979858 674.385620,549.152588 
	C673.527283,548.877686 672.668884,548.602722 671.810486,548.327820 
	C671.867188,549.316406 671.923828,550.305054 672.574341,551.634399 
z"/>
<path fill="#050505" opacity="1.000000" stroke="none" 
	d="
M774.957520,560.044678 
	C770.660645,557.353149 765.271545,556.341858 762.465698,551.385681 
	C761.195068,549.141113 754.835999,550.596313 752.759155,553.984741 
	C749.889832,558.666199 745.168945,558.888733 740.295898,559.967224 
	C745.154297,554.921387 751.586243,550.647949 755.492798,544.712402 
	C767.357788,526.685303 764.438904,491.285431 742.078125,479.870270 
	C737.006104,477.281006 730.996643,476.528046 725.137573,474.644531 
	C725.679871,473.917236 726.490234,473.124725 727.329163,473.093170 
	C731.215210,472.946930 735.109253,473.019043 739.000366,472.999695 
	C747.166260,472.959106 750.333008,470.400696 751.941467,462.294159 
	C753.530457,454.285431 757.125671,448.652893 766.238037,447.778137 
	C769.051147,447.508087 771.625061,445.063263 774.397217,443.810486 
	C775.030579,443.524231 776.031006,444.050171 776.494690,444.606445 
	C775.752380,446.110199 775.051636,447.209564 775.050659,448.309540 
	C775.019287,485.513062 775.054443,522.716614 775.079895,559.920166 
	C775.079895,559.920166 774.998291,560.003174 774.957520,560.044678 
z"/>
<path fill="#FEFEFE" opacity="1.000000" stroke="none" 
	d="
M775.542053,559.956421 
	C775.054443,522.716614 775.019287,485.513062 775.050659,448.309540 
	C775.051636,447.209564 775.752380,446.110199 776.561768,444.929352 
	C778.390503,444.900085 779.784302,444.951996 782.014221,444.999756 
	C784.565735,444.947327 786.281189,444.899017 787.996643,444.850677 
	C789.673218,444.906677 791.349854,444.962677 793.445923,445.034546 
	C793.865356,483.173645 793.865356,521.296875 793.865356,559.992676 
	C787.863708,559.992676 781.933960,559.992676 775.542053,559.956421 
z"/>
<path fill="#050505" opacity="1.000000" stroke="none" 
	d="
M399.507050,446.073090 
	C399.899994,482.065857 399.952423,518.128357 400.004303,554.190857 
	C400.006866,555.980103 400.004608,557.769348 400.004608,559.981934 
	C416.260712,559.981934 432.164795,559.981934 448.532990,560.049988 
	C447.671356,560.745789 446.350891,561.905823 445.018982,561.919006 
	C431.534973,562.053162 418.031250,562.400879 404.572571,561.801575 
	C399.209778,561.562805 393.891876,559.271667 388.691559,557.507996 
	C387.874298,557.230774 387.622742,554.806824 387.420441,553.332825 
	C387.226685,551.921387 388.061157,549.964905 387.373108,549.088318 
	C381.232727,541.265320 383.755341,531.996277 383.223328,523.400513 
	C382.789581,516.392334 384.813751,509.264160 384.816833,502.188812 
	C384.820862,493.013245 384.408325,483.771576 383.232025,474.680420 
	C382.122314,466.103790 387.202179,455.000244 394.833038,451.038239 
	C396.638123,450.101013 397.740662,447.810699 399.507050,446.073090 
z"/>
<path fill="#050505" opacity="1.000000" stroke="none" 
	d="
M680.936157,538.610840 
	C679.608215,537.692871 678.428345,536.193542 676.935791,535.135315 
	C675.526367,534.135925 673.788208,533.600159 670.997009,532.304504 
	C670.997009,536.579590 671.112793,539.808899 670.967590,543.026367 
	C670.787598,547.016479 668.569824,549.310303 664.566162,548.838928 
	C663.281860,548.687622 661.239197,546.838989 661.208557,545.721375 
	C661.120850,542.515076 662.080933,539.295898 662.253235,536.061707 
	C662.389893,533.497070 662.053406,530.889343 661.632690,528.349487 
	C661.601746,528.162598 658.508240,527.853149 658.015320,528.498962 
	C656.852844,530.021790 656.401489,532.087341 655.774902,533.652466 
	C656.779846,535.156006 658.599426,536.749146 658.313110,537.723328 
	C657.916077,539.073975 655.871460,539.891602 654.653198,541.063293 
	C653.411072,542.257935 651.847290,543.418823 651.250000,544.922485 
	C649.862488,548.414856 649.154053,552.174500 647.807983,555.686951 
	C647.077026,557.594421 645.685913,560.660583 644.452454,560.730530 
	C637.391174,561.130676 630.287903,560.788452 623.132568,560.293823 
	C629.869751,559.889465 636.673340,559.889465 643.619629,559.889465 
	C653.940735,533.514160 664.260498,507.159393 674.543091,480.790222 
	C674.886597,479.909180 674.854187,478.881500 674.972473,477.522186 
	C676.099365,476.987305 677.542786,476.340454 678.353455,476.802856 
	C682.749329,479.310211 687.058105,478.464447 691.614014,477.344208 
	C696.573486,476.124725 701.680481,475.504791 706.889648,474.874573 
	C691.040405,480.202698 681.811768,491.338745 678.554077,507.542694 
	C676.464172,517.938354 677.083557,528.235168 680.936157,538.610840 
z"/>
<path fill="#050505" opacity="1.000000" stroke="none" 
	d="
M873.056763,476.408997 
	C870.809570,476.950775 868.508118,477.053986 866.014160,477.165833 
	C858.917908,497.002686 851.850037,516.760376 844.427795,537.508545 
	C837.443970,517.416321 830.727112,498.092163 824.079895,478.385681 
	C827.767456,479.814362 831.385376,481.625397 835.402466,483.636230 
	C839.403503,479.672058 844.913086,479.424530 850.589600,478.809998 
	C855.696289,478.257172 860.606262,476.014160 865.649048,474.692566 
	C868.207825,474.022003 871.077820,472.565826 873.056763,476.408997 
z"/>
<path fill="#050505" opacity="1.000000" stroke="none" 
	d="
M641.888428,512.760925 
	C639.388184,520.491272 636.887939,528.221680 634.387756,535.952026 
	C633.924805,535.956543 633.461853,535.961121 632.998901,535.965637 
	C627.310486,519.277100 621.622070,502.588531 615.878418,485.508911 
	C626.142517,486.882385 635.174011,482.378235 644.493958,479.252319 
	C646.031067,478.736725 647.632874,478.414124 649.447266,478.310089 
	C644.849304,481.684845 640.307800,485.492828 635.080872,487.602112 
	C630.235046,489.557617 624.656677,489.697906 618.256714,490.842010 
	C620.636108,492.677277 622.369385,493.336517 622.839661,494.504395 
	C624.232056,497.961731 625.362671,501.570648 626.120972,505.218933 
	C626.540161,507.235443 626.008850,509.449463 625.906006,511.574463 
	C626.533386,511.646851 627.160767,511.719269 627.788147,511.791687 
	C628.214294,510.677582 628.450806,509.434784 629.102844,508.473969 
	C630.921204,505.794556 632.380310,502.158936 634.961731,500.880737 
	C638.619812,499.069397 639.898804,496.436157 641.067200,493.099731 
	C641.501770,491.858490 642.748291,490.901520 643.624634,489.814911 
	C644.118530,490.205383 644.612366,490.595856 645.106201,490.986298 
	C644.534607,492.029785 643.850037,493.029694 643.426147,494.130066 
	C643.065979,495.065002 643.006592,496.115784 642.814209,497.115326 
	C643.937073,497.004028 645.072388,496.959717 646.177979,496.755127 
	C646.797424,496.640472 647.367859,496.260498 647.960327,496.000061 
	C646.817261,499.762970 645.674194,503.525848 643.842896,507.333069 
	C641.884583,508.415161 640.614563,509.452911 639.344543,510.490662 
	C640.192505,511.247437 641.040466,512.004150 641.888428,512.760925 
z"/>
<path fill="#060606" opacity="1.000000" stroke="none" 
	d="
M648.110474,495.712860 
	C647.367859,496.260498 646.797424,496.640472 646.177979,496.755127 
	C645.072388,496.959717 643.937073,497.004028 642.814209,497.115326 
	C643.006592,496.115784 643.065979,495.065002 643.426147,494.130066 
	C643.850037,493.029694 644.534607,492.029785 645.106201,490.986298 
	C644.612366,490.595856 644.118530,490.205383 643.624634,489.814911 
	C642.748291,490.901520 641.501770,491.858490 641.067200,493.099731 
	C639.898804,496.436157 638.619812,499.069397 634.961731,500.880737 
	C632.380310,502.158936 630.921204,505.794556 629.102844,508.473969 
	C628.450806,509.434784 628.214294,510.677582 627.788147,511.791687 
	C627.160767,511.719269 626.533386,511.646851 625.906006,511.574463 
	C626.008850,509.449463 626.540161,507.235443 626.120972,505.218933 
	C625.362671,501.570648 624.232056,497.961731 622.839661,494.504395 
	C622.369385,493.336517 620.636108,492.677277 618.256714,490.842010 
	C624.656677,489.697906 630.235046,489.557617 635.080872,487.602112 
	C640.307800,485.492828 644.849304,481.684845 649.844910,478.309540 
	C651.202576,477.832336 652.405212,477.663452 653.808350,478.034363 
	C654.024658,478.765381 654.040466,478.956604 654.056335,479.147858 
	C654.056335,479.147858 654.021606,479.588898 653.616943,479.853821 
	C652.902039,481.450409 652.591858,482.782074 652.281616,484.113708 
	C651.917725,485.194885 651.553772,486.276093 650.700195,487.745667 
	C649.935242,489.805695 649.659912,491.477295 649.384521,493.148895 
	C649.009888,493.907806 648.635254,494.666748 648.110474,495.712860 
z"/>
<path fill="#060606" opacity="1.000000" stroke="none" 
	d="
M592.131409,477.343750 
	C592.498169,478.943848 592.864868,480.543976 592.939331,482.742279 
	C592.754150,486.220032 593.196533,489.143555 592.827209,491.960693 
	C592.641846,493.374634 590.979492,494.594940 589.985107,495.902832 
	C588.992981,494.843628 588.100464,493.661072 586.982300,492.757874 
	C585.716858,491.735687 584.248962,490.964203 582.869080,490.083679 
	C582.869080,490.083710 582.962463,490.034515 582.953247,489.696106 
	C582.175720,488.616058 581.407410,487.874390 580.639099,487.132751 
	C579.465271,486.055695 578.291504,484.978607 576.984863,483.247162 
	C575.859802,482.090057 574.867615,481.587311 573.875427,481.084595 
	C573.875427,481.084595 573.967834,481.037201 573.910278,480.718414 
	C572.845398,479.974945 571.838074,479.550262 570.830811,479.125580 
	C570.830811,479.125580 570.936401,479.072693 570.896118,478.771545 
	C568.902344,477.312225 566.948792,476.154083 564.995300,474.995911 
	C565.776794,474.360046 566.621155,473.109863 567.330078,473.182465 
	C575.297424,473.998260 583.243958,475.017548 591.626465,476.326782 
	C592.081665,476.895538 592.106567,477.119629 592.131409,477.343750 
z"/>
<path fill="#050505" opacity="1.000000" stroke="none" 
	d="
M243.898682,390.495911 
	C235.492432,390.040009 228.257568,393.042480 221.336182,397.748322 
	C215.359970,401.811523 208.946640,405.231781 202.382538,409.022522 
	C202.610733,404.921143 205.205017,403.015778 209.137833,401.840240 
	C211.407104,401.161926 213.240494,399.053375 215.296921,397.627258 
	C217.450104,396.134033 219.531189,393.641418 221.825928,393.412720 
	C229.219955,392.675781 235.554367,384.657074 243.898682,390.495911 
z"/>
<path fill="#050505" opacity="1.000000" stroke="none" 
	d="
M199.854401,409.897827 
	C192.026138,415.179108 183.968079,420.157684 175.562836,425.208862 
	C176.469223,416.528778 185.888992,416.740631 190.562073,411.591766 
	C192.257751,409.723511 196.528717,410.192566 199.854401,409.897827 
z"/>
<path fill="#050505" opacity="1.000000" stroke="none" 
	d="
M344.995605,461.908752 
	C342.016693,452.169647 336.192474,444.687195 326.981873,439.431152 
	C331.539429,439.758789 335.912872,440.960632 338.386841,445.615814 
	C338.765198,446.327698 339.348419,447.216370 340.028168,447.438812 
	C347.821320,449.989441 344.281555,456.679382 344.995605,461.908752 
z"/>
<path fill="#050505" opacity="1.000000" stroke="none" 
	d="
M304.255524,425.113617 
	C299.054565,422.562958 294.102356,419.645599 289.002075,416.415253 
	C292.547119,416.673523 296.234375,417.286682 299.934906,417.804993 
	C304.135559,418.393311 305.443268,420.812500 304.255524,425.113617 
z"/>
<path fill="#050505" opacity="1.000000" stroke="none" 
	d="
M326.910156,438.787323 
	C319.605469,434.903839 312.330170,430.632538 304.842957,426.123810 
	C308.275024,425.353363 311.351257,424.541656 314.138947,428.962341 
	C315.985535,431.890717 320.806580,432.869415 324.132935,434.978180 
	C325.316010,435.728210 326.017975,437.237091 326.910156,438.787323 
z"/>
<path fill="#050505" opacity="1.000000" stroke="none" 
	d="
M592.572266,477.232849 
	C592.106567,477.119629 592.081665,476.895538 592.027222,476.334564 
	C597.691162,472.399139 601.256226,472.434753 603.986694,476.483185 
	C600.335510,476.940002 596.674316,477.031006 592.572266,477.232849 
z"/>
<path fill="#050505" opacity="1.000000" stroke="none" 
	d="
M288.896545,415.776947 
	C284.650909,413.677246 280.399872,411.203949 275.999298,408.418396 
	C279.509064,408.936768 283.292358,409.445709 286.757141,410.781097 
	C287.893524,411.219055 288.203339,413.801544 288.896545,415.776947 
z"/>
<path fill="#050505" opacity="1.000000" stroke="none" 
	d="
M466.607391,556.028564 
	C463.889496,557.604675 460.779480,559.155457 457.334106,560.853882 
	C455.445587,560.785767 453.892426,560.570007 452.106873,560.036682 
	C456.654785,558.480469 461.435028,557.241821 466.607391,556.028564 
z"/>
<path fill="#050505" opacity="1.000000" stroke="none" 
	d="
M823.954468,476.745117 
	C821.920776,477.090118 819.891663,477.041962 817.432983,476.921417 
	C820.017517,473.106476 821.759888,472.981934 823.954468,476.745117 
z"/>
<path fill="#050505" opacity="1.000000" stroke="none" 
	d="
M669.922241,476.500183 
	C667.953918,476.897583 665.911133,476.945862 663.435791,476.921936 
	C664.726013,471.143372 667.361877,474.381958 669.922241,476.500183 
z"/>
<path fill="#060606" opacity="1.000000" stroke="none" 
	d="
M479.990204,456.631592 
	C477.695007,455.626709 475.401459,454.219849 472.918945,452.529480 
	C475.610077,452.736298 479.636292,451.137390 479.990204,456.631592 
z"/>
<path fill="#050505" opacity="1.000000" stroke="none" 
	d="
M787.931519,444.518005 
	C786.281189,444.899017 784.565735,444.947327 782.426758,444.923004 
	C783.487305,440.481842 785.613464,441.774384 787.931519,444.518005 
z"/>
<path fill="#050505" opacity="1.000000" stroke="none" 
	d="
M174.811127,425.163147 
	C173.696091,426.234192 172.128311,427.237579 170.285049,428.374634 
	C167.845566,422.765961 172.553665,425.780579 174.811127,425.163147 
z"/>
<path fill="#050505" opacity="1.000000" stroke="none" 
	d="
M660.943970,476.497528 
	C659.606995,476.897705 658.217224,476.945648 656.415283,476.922882 
	C656.987610,472.157135 658.829468,473.390778 660.943970,476.497528 
z"/>
<path fill="#050505" opacity="1.000000" stroke="none" 
	d="
M451.988953,445.499542 
	C450.134003,445.878479 448.271118,445.903290 446.132568,445.643250 
	C447.862305,444.253571 449.812103,441.547211 451.988953,445.499542 
z"/>
<path fill="#050505" opacity="1.000000" stroke="none" 
	d="
M564.514404,475.175385 
	C566.948792,476.154083 568.902344,477.312225 570.868835,478.823883 
	C568.493652,478.228058 566.105530,477.278748 563.441162,476.115570 
	C563.454407,475.719421 563.744019,475.537140 564.514404,475.175385 
z"/>
<path fill="#050505" opacity="1.000000" stroke="none" 
	d="
M884.909424,476.493683 
	C883.281250,476.893921 881.565979,476.943665 879.427002,476.921265 
	C880.593384,473.732605 882.674194,474.660553 884.909424,476.493683 
z"/>
<path fill="#050505" opacity="1.000000" stroke="none" 
	d="
M535.389404,475.919189 
	C535.000488,475.442535 535.000244,475.030396 535.000000,474.309143 
	C536.951721,474.055450 538.903381,474.110870 540.925781,474.503296 
	C539.256897,475.221436 537.517456,475.602570 535.389404,475.919189 
z"/>
<path fill="#060606" opacity="1.000000" stroke="none" 
	d="
M472.801849,451.916229 
	C471.337921,451.677795 469.907104,451.068634 468.241455,450.219055 
	C470.348175,448.245117 471.988983,448.670654 472.801849,451.916229 
z"/>
<path fill="#050505" opacity="1.000000" stroke="none" 
	d="
M559.847290,474.805725 
	C558.380981,475.104645 556.888245,475.019958 555.111145,474.694153 
	C556.491516,474.442688 558.156189,474.432373 559.847290,474.805725 
z"/>
<path fill="#050505" opacity="1.000000" stroke="none" 
	d="
M615.007935,481.925140 
	C614.145447,480.658783 613.566284,479.203033 612.926025,477.397949 
	C613.673706,478.611023 614.482483,480.173370 615.007935,481.925140 
z"/>
<path fill="#050505" opacity="1.000000" stroke="none" 
	d="
M582.629395,547.974487 
	C582.722778,549.005371 582.506409,550.171814 582.144165,551.670349 
	C581.461365,551.978821 580.924316,551.955200 579.985840,551.894775 
	C580.496094,550.608582 581.407837,549.359314 582.629395,547.974487 
z"/>
<path fill="#050505" opacity="1.000000" stroke="none" 
	d="
M275.890015,407.822937 
	C274.759735,407.571777 273.620636,406.987854 272.249268,406.174316 
	C273.305084,406.459869 274.593109,406.975037 275.890015,407.822937 
z"/>
<path fill="#050505" opacity="1.000000" stroke="none" 
	d="
M712.957397,474.059448 
	C712.009827,474.576385 710.869080,474.786560 709.365601,474.941467 
	C710.256592,474.508362 711.510498,474.130493 712.957397,474.059448 
z"/>
<path fill="#050505" opacity="1.000000" stroke="none" 
	d="
M578.142395,555.672729 
	C577.428467,555.801575 576.856873,555.603210 576.117310,555.143921 
	C576.713562,554.187805 577.477905,553.492432 578.553650,552.705200 
	C578.671692,553.523926 578.478271,554.434692 578.142395,555.672729 
z"/>
<path fill="#050505" opacity="1.000000" stroke="none" 
	d="
M247.952011,391.623016 
	C247.411682,391.887695 246.825333,391.848724 246.049423,391.581360 
	C246.541901,391.341766 247.223953,391.330566 247.952011,391.623016 
z"/>
<path fill="#050505" opacity="1.000000" stroke="none" 
	d="
M464.892578,448.524048 
	C464.220337,448.700989 463.443115,448.499573 462.414795,448.110107 
	C463.038300,447.996582 463.912964,448.071136 464.892578,448.524048 
z"/>
<path fill="#050505" opacity="1.000000" stroke="none" 
	d="
M560.840820,475.651031 
	C560.660645,475.772186 560.334717,475.703796 559.911133,475.381836 
	C560.145264,475.138855 560.439148,475.249908 560.840820,475.651031 
z"/>
<path fill="#050505" opacity="1.000000" stroke="none" 
	d="
M654.316223,479.053711 
	C654.040466,478.956604 654.024658,478.765381 654.005127,478.286194 
	C654.001282,477.998291 654.427002,477.999298 654.639648,478.001129 
	C654.760193,478.321838 654.668152,478.640717 654.316223,479.053711 
z"/>
<path fill="#050505" opacity="1.000000" stroke="none" 
	d="
M615.832275,484.942383 
	C615.605957,484.966492 615.329895,484.756592 615.102905,484.279877 
	C615.452026,484.163391 615.662231,484.395172 615.832275,484.942383 
z"/>
<path fill="#0A0A0A" opacity="1.000000" stroke="none" 
	d="
M327.012085,488.000000 
	C327.013184,507.498444 326.876831,526.498535 327.101898,545.494324 
	C327.166290,550.930847 325.174194,554.809387 320.722992,557.494202 
	C293.909149,573.667664 267.057220,589.778015 240.232117,605.932922 
	C236.954559,607.906738 233.819290,607.886597 230.526123,605.927673 
	C206.173981,591.442627 181.761017,577.059387 157.463013,562.484314 
	C153.103394,559.869202 150.967682,555.614929 150.973114,550.368713 
	C151.001572,522.870911 151.031387,495.373016 150.943649,467.875519 
	C150.928314,463.067474 152.864777,459.517670 156.812973,457.124023 
	C182.600632,441.489716 208.414612,425.898590 234.262192,410.363617 
	C237.744125,408.270905 241.416428,408.249817 245.021072,410.430908 
	C269.831085,425.442963 294.693756,440.368683 319.442261,455.481323 
	C324.495209,458.566925 327.525391,463.018005 327.097015,469.506775 
	C326.702637,475.480377 327.012360,481.500427 327.012085,488.000000 
z"/>
<path fill="#060606" opacity="1.000000" stroke="none" 
	d="
M465.797180,473.173889 
	C476.033905,482.584747 477.328186,494.493958 477.091675,507.089050 
	C476.882843,518.210938 472.821320,527.279785 464.221313,534.260620 
	C457.475586,539.736206 449.530273,542.395081 440.992737,542.927734 
	C434.541656,543.330139 428.045349,543.007385 421.279999,543.007385 
	C421.279999,516.255005 421.279999,489.717102 421.279999,462.966644 
	C436.908325,462.945892 452.730927,461.117828 465.797180,473.173889 
z"/>
<path fill="#050505" opacity="1.000000" stroke="none" 
	d="
M480.627319,547.987061 
	C481.691986,552.388245 478.692932,552.154358 475.306213,551.966003 
	C476.681824,550.668152 478.491486,549.383667 480.627319,547.987061 
z"/>
<path fill="#050505" opacity="1.000000" stroke="none" 
	d="
M473.574921,552.827026 
	C472.710602,553.631104 471.512848,554.503845 470.123352,555.110596 
	C471.034882,554.195007 472.138184,553.545349 473.574921,552.827026 
z"/>
<path fill="#050505" opacity="1.000000" stroke="none" 
	d="
M486.600159,542.046265 
	C486.438690,542.626221 485.996674,543.298584 485.214722,543.962341 
	C485.356384,543.348694 485.838013,542.743652 486.600159,542.046265 
z"/>
<path fill="#050505" opacity="1.000000" stroke="none" 
	d="
M582.919128,490.444763 
	C584.248962,490.964203 585.716858,491.735687 586.982300,492.757874 
	C588.100464,493.661072 588.992981,494.843628 589.985107,495.902832 
	C590.979492,494.594940 592.641846,493.374634 592.827209,491.960693 
	C593.196533,489.143555 592.754150,486.220032 592.967041,483.105835 
	C595.200195,487.628021 597.113464,492.384857 598.661987,497.551941 
	C596.881470,499.203369 594.796387,500.211151 594.257202,501.757843 
	C593.806702,503.050110 595.165710,504.973175 595.723389,506.616882 
	C597.168030,505.806732 598.599548,504.971405 600.065735,504.202301 
	C600.489441,503.980072 601.013000,503.948151 601.490784,503.828918 
	C603.674988,509.593628 605.859192,515.358337 607.640991,521.539185 
	C604.854126,522.892456 600.984497,523.252380 600.355164,524.871582 
	C598.203857,530.406677 602.107788,533.789307 607.732239,537.596863 
	C608.241455,532.801575 608.667847,528.786682 609.094177,524.771790 
	C613.069763,534.596008 617.045776,544.420044 621.020508,554.244629 
	C621.686646,555.890991 622.347595,557.539490 623.060059,559.559814 
	C618.545654,559.028503 618.629517,554.679871 617.088013,551.603088 
	C616.548889,550.527100 616.831665,549.039307 616.629639,546.201172 
	C612.832947,547.978638 609.716858,549.437439 605.780640,551.280212 
	C603.009094,550.036926 598.875305,549.063416 598.300781,543.457703 
	C598.163452,542.117004 594.467957,540.458252 592.281738,540.244080 
	C590.759033,540.094971 588.907898,542.029480 587.411560,543.281738 
	C586.219971,544.278931 585.342896,545.651917 583.953186,546.856445 
	C585.283081,543.152588 586.985962,539.450195 589.031799,535.002258 
	C582.615662,535.002258 577.485046,534.875061 572.369751,535.098206 
	C571.197388,535.149292 569.726501,536.149048 568.992004,537.151184 
	C564.953552,542.661133 559.631714,545.690674 552.447510,545.777222 
	C553.916138,544.366577 555.767029,543.329651 557.617065,542.286011 
	C556.690674,540.905090 555.765076,539.530762 554.582458,537.774841 
	C559.858948,536.381775 564.351440,535.195740 569.140198,533.931519 
	C567.644592,529.736633 565.996826,528.940796 562.397339,530.103149 
	C557.690552,531.623108 552.657837,532.195312 547.728210,532.924255 
	C546.349182,533.128174 544.784363,532.612183 543.399902,532.144714 
	C538.801208,530.591919 534.245789,528.910706 528.525513,526.868835 
	C529.530701,529.676392 530.308167,531.417358 530.752136,533.239624 
	C531.046448,534.447510 530.862854,535.771851 530.893188,537.044067 
	C529.255737,532.985901 527.618408,528.927673 525.481445,523.631226 
	C547.953186,523.631226 568.792114,523.631226 589.786987,523.631226 
	C590.601379,511.495209 588.942200,500.702698 582.919128,490.444763 
M590.308350,533.868164 
	C590.605042,534.762512 590.901733,535.656799 591.198486,536.551147 
	C591.727295,536.041443 592.256104,535.531738 592.784851,535.022034 
	C592.119568,534.471741 591.454285,533.921448 590.308350,533.868164 
M572.109497,531.284912 
	C571.574463,531.474609 571.039368,531.664307 570.504333,531.854004 
	C570.629395,532.129089 570.754456,532.404175 570.879578,532.679260 
	C571.430420,532.357910 571.981201,532.036499 572.109497,531.284912 
M586.490662,532.849182 
	C586.789185,532.427063 587.087708,532.004944 587.386169,531.582825 
	C586.944397,531.470215 586.502625,531.357544 586.060791,531.244934 
	C586.007874,531.738708 585.954956,532.232422 586.490662,532.849182 
z"/>
<path fill="#060606" opacity="1.000000" stroke="none" 
	d="
M527.473877,507.682068 
	C530.188782,496.664337 538.826233,490.422913 549.889221,491.258057 
	C562.059021,492.176697 568.953125,498.527374 569.850403,510.004517 
	C556.218994,510.004517 542.614014,510.028656 529.010010,509.921844 
	C528.426880,509.917236 527.853210,508.703125 527.473877,507.682068 
z"/>
<path fill="#060606" opacity="1.000000" stroke="none" 
	d="
M531.029785,537.356323 
	C530.862854,535.771851 531.046448,534.447510 530.752136,533.239624 
	C530.308167,531.417358 529.530701,529.676392 528.525513,526.868835 
	C534.245789,528.910706 538.801208,530.591919 543.399902,532.144714 
	C544.784363,532.612183 546.349182,533.128174 547.728210,532.924255 
	C552.657837,532.195312 557.690552,531.623108 562.397339,530.103149 
	C565.996826,528.940796 567.644592,529.736633 569.140198,533.931519 
	C564.351440,535.195740 559.858948,536.381775 554.582458,537.774841 
	C555.765076,539.530762 556.690674,540.905090 557.617065,542.286011 
	C555.767029,543.329651 553.916138,544.366577 552.031982,545.751831 
	C550.599121,546.160156 549.199707,546.220154 547.347839,545.785889 
	C545.930664,545.467834 544.965820,545.644043 544.001038,545.820190 
	C539.722778,543.103027 535.444580,540.385803 531.029785,537.356323 
z"/>
<path fill="#050505" opacity="1.000000" stroke="none" 
	d="
M544.369629,545.905579 
	C544.965820,545.644043 545.930664,545.467834 546.947327,545.612305 
	C546.245544,545.952271 545.491943,545.971619 544.369629,545.905579 
z"/>
<path fill="#050505" opacity="1.000000" stroke="none" 
	d="
M570.968079,479.424683 
	C571.838074,479.550262 572.845398,479.974945 573.886108,480.764374 
	C572.981506,480.660706 572.043396,480.192261 570.968079,479.424683 
z"/>
<path fill="#050505" opacity="1.000000" stroke="none" 
	d="
M580.725220,487.451172 
	C581.407410,487.874390 582.175720,488.616058 582.928833,489.742859 
	C582.212830,489.341919 581.512085,488.555786 580.725220,487.451172 
z"/>
<path fill="#050505" opacity="1.000000" stroke="none" 
	d="
M574.001831,481.389221 
	C574.867615,481.587311 575.859802,482.090057 576.862305,482.971191 
	C575.957886,482.797699 575.043030,482.245789 574.001831,481.389221 
z"/>
<path fill="#050505" opacity="1.000000" stroke="none" 
	d="
M532.280762,476.913940 
	C532.149658,476.584747 532.370544,476.353333 532.901611,476.120300 
	C532.939514,476.340576 532.746521,476.638275 532.280762,476.913940 
z"/>
<path fill="#060606" opacity="1.000000" stroke="none" 
	d="
M732.484009,495.310974 
	C737.449036,499.012054 740.034485,503.864258 740.236572,509.473480 
	C740.507629,516.997925 740.982910,524.756775 739.517517,532.042358 
	C737.582520,541.662354 728.725586,547.258118 719.282288,546.666138 
	C709.076477,546.026245 700.489685,539.553406 699.219177,530.028320 
	C698.249695,522.760071 697.987915,515.070435 699.264771,507.898163 
	C701.848328,493.385132 717.588196,487.618652 732.484009,495.310974 
z"/>
<path fill="#050505" opacity="1.000000" stroke="none" 
	d="
M691.154785,553.389771 
	C689.391296,553.676819 687.352539,554.076233 685.543457,553.601074 
	C679.980713,552.140198 679.024170,548.957153 682.781250,543.841431 
	C685.788696,546.847778 688.386597,549.974976 691.154785,553.389771 
z"/>
<path fill="#050505" opacity="1.000000" stroke="none" 
	d="
M696.018921,557.633911 
	C692.107117,560.113831 691.297974,557.743713 691.228882,554.047974 
	C692.843994,554.877258 694.380676,556.096436 696.018921,557.633911 
z"/>
<path fill="#060606" opacity="1.000000" stroke="none" 
	d="
M609.114502,524.467651 
	C608.667847,528.786682 608.241455,532.801575 607.732239,537.596863 
	C602.107788,533.789307 598.203857,530.406677 600.355164,524.871582 
	C600.984497,523.252380 604.854126,522.892456 607.673462,521.926086 
	C608.108276,521.896790 608.047363,521.924866 608.128479,522.126099 
	C608.354797,522.628906 608.579163,522.850281 608.882690,522.991394 
	C608.966736,523.382080 609.050781,523.772827 609.114502,524.467651 
z"/>
<path fill="#060606" opacity="1.000000" stroke="none" 
	d="
M601.477539,503.453033 
	C601.013000,503.948151 600.489441,503.980072 600.065735,504.202301 
	C598.599548,504.971405 597.168030,505.806732 595.723389,506.616882 
	C595.165710,504.973175 593.806702,503.050110 594.257202,501.757843 
	C594.796387,500.211151 596.881470,499.203369 598.698975,497.935913 
	C599.100769,497.909637 599.040039,497.936981 599.120483,498.134125 
	C599.343079,498.627655 599.562195,498.847351 599.858154,498.990295 
	C600.393494,500.352570 600.928894,501.714844 601.477539,503.453033 
z"/>
<path fill="#060606" opacity="1.000000" stroke="none" 
	d="
M641.904358,512.777100 
	C641.040466,512.004150 640.192505,511.247437 639.344543,510.490662 
	C640.614563,509.452911 641.884583,508.415161 643.570557,507.573853 
	C643.758972,508.328766 643.531433,508.887207 642.767090,509.818268 
	C642.114441,511.066864 641.998596,511.942871 641.882751,512.818848 
	C641.882751,512.818848 641.920288,512.793335 641.904358,512.777100 
z"/>
<path fill="#050505" opacity="1.000000" stroke="none" 
	d="
M649.645020,492.905365 
	C649.659912,491.477295 649.935242,489.805695 650.546204,488.067627 
	C650.556335,489.554718 650.230957,491.108276 649.645020,492.905365 
z"/>
<path fill="#050505" opacity="1.000000" stroke="none" 
	d="
M652.565796,483.935211 
	C652.591858,482.782074 652.902039,481.450409 653.536560,480.059937 
	C653.523926,481.252991 653.186951,482.504852 652.565796,483.935211 
z"/>
<path fill="#050505" opacity="1.000000" stroke="none" 
	d="
M642.065735,512.550659 
	C641.998596,511.942871 642.114441,511.066864 642.616089,510.095459 
	C642.750793,510.760834 642.499756,511.521698 642.065735,512.550659 
z"/>
<path fill="#050505" opacity="1.000000" stroke="none" 
	d="
M608.912720,522.722168 
	C608.579163,522.850281 608.354797,522.628906 608.143616,522.096191 
	C608.365967,522.061035 608.654358,522.256958 608.912720,522.722168 
z"/>
<path fill="#050505" opacity="1.000000" stroke="none" 
	d="
M599.899170,498.722961 
	C599.562195,498.847351 599.343079,498.627655 599.135071,498.104218 
	C599.359497,498.069977 599.649841,498.262787 599.899170,498.722961 
z"/>
<path fill="#050505" opacity="1.000000" stroke="none" 
	d="
M672.277466,551.463989 
	C671.923828,550.305054 671.867188,549.316406 671.810486,548.327759 
	C672.668884,548.602722 673.527283,548.877686 674.385620,549.152588 
	C673.781860,549.979858 673.178101,550.807129 672.277466,551.463989 
z"/>
<path fill="#060606" opacity="1.000000" stroke="none" 
	d="
M590.548706,533.619629 
	C591.454285,533.921448 592.119568,534.471741 592.784851,535.022034 
	C592.256104,535.531738 591.727295,536.041443 591.198486,536.551147 
	C590.901733,535.656799 590.605042,534.762512 590.548706,533.619629 
z"/>
<path fill="#060606" opacity="1.000000" stroke="none" 
	d="
M572.320740,531.500000 
	C571.981201,532.036499 571.430420,532.357910 570.879578,532.679260 
	C570.754456,532.404175 570.629395,532.129089 570.504333,531.854004 
	C571.039368,531.664307 571.574463,531.474609 572.320740,531.500000 
z"/>
<path fill="#060606" opacity="1.000000" stroke="none" 
	d="
M586.196350,532.787720 
	C585.954956,532.232422 586.007874,531.738708 586.060791,531.244934 
	C586.502625,531.357544 586.944397,531.470215 587.386230,531.582825 
	C587.087708,532.004944 586.789185,532.427063 586.196350,532.787720 
z"/>
</svg>